<?xml version="1.0" standalone="no"?>
<!DOCTYPE svg PUBLIC "-//W3C//DTD SVG 20010904//EN"
 "http://www.w3.org/TR/2001/REC-SVG-20010904/DTD/svg10.dtd">
<svg version="1.0" xmlns="http://www.w3.org/2000/svg"
 width="1200.000000pt" height="675.000000pt" viewBox="0 0 1200.000000 675.000000"
 preserveAspectRatio="xMidYMid meet">

<g transform="translate(0.000000,675.000000) scale(0.100000,-0.100000)"
fill="#000000" stroke="none">
<path d="M0 3375 l0 -3375 6000 0 6000 0 0 3375 0 3375 -6000 0 -6000 0 0
-3375z m6967 2985 c30 -18 35 -18 67 -5 53 23 161 19 213 -6 52 -25 92 -74 99
-121 5 -29 13 -37 55 -56 30 -14 59 -37 74 -60 16 -24 25 -31 25 -19 0 12 8
17 26 17 21 0 25 -4 22 -22 -2 -15 -11 -24 -24 -26 -18 -3 -22 -12 -26 -51 -6
-56 -36 -104 -81 -129 -27 -14 -66 -17 -253 -20 -140 -2 -237 1 -262 8 -69 18
-132 85 -132 140 0 16 -6 20 -31 20 -58 0 -119 58 -119 115 0 33 31 75 70 95
24 12 40 28 40 38 0 25 27 61 64 83 42 26 130 26 173 -1z m-2117 -115 c0 -8
19 -23 43 -33 36 -16 44 -17 58 -6 13 12 19 10 43 -15 23 -24 26 -32 16 -48
-10 -15 -10 -25 2 -48 15 -28 16 -28 27 -7 8 15 8 23 0 27 -7 5 -2 16 12 31
17 19 25 21 36 12 10 -8 17 -8 25 0 7 7 20 12 29 12 9 0 19 9 22 20 7 26 57
28 64 2 5 -22 63 -46 77 -32 14 14 59 -29 46 -45 -12 -15 9 -75 27 -75 8 0 13
-13 13 -35 0 -22 -5 -35 -13 -35 -18 0 -39 -60 -27 -75 13 -16 -32 -59 -46
-45 -14 14 -72 -10 -77 -32 -3 -12 -15 -18 -32 -18 -17 0 -29 6 -32 18 -6 23
-62 46 -78 32 -8 -7 -19 -2 -34 14 -14 15 -19 26 -12 31 8 4 8 12 0 27 -11 21
-12 21 -27 -7 -12 -23 -12 -33 -2 -48 10 -16 8 -23 -15 -47 -22 -23 -31 -27
-49 -19 -30 14 -96 -14 -96 -41 0 -17 -7 -20 -40 -20 -33 0 -42 4 -49 23 -11
27 -76 54 -95 38 -18 -15 -75 44 -59 60 16 16 -19 91 -47 101 -17 6 -21 15
-18 45 2 30 8 39 24 41 16 2 25 15 34 47 7 24 9 49 5 55 -11 17 45 72 61 59
18 -15 94 11 94 33 0 15 9 18 45 18 33 0 45 -4 45 -15z m-1160 -1090 l0 -1085
-815 0 -815 0 0 1085 0 1085 815 0 815 0 0 -1085z m6250 0 l0 -1085 -815 0
-815 0 0 1085 0 1085 815 0 815 0 0 -1085z m-6150 930 c0 -18 -5 -25 -20 -25
-15 0 -20 7 -20 25 0 18 5 25 20 25 15 0 20 -7 20 -25z m180 0 c0 -20 -5 -25
-25 -25 -20 0 -25 5 -25 25 0 20 5 25 25 25 20 0 25 -5 25 -25z m170 0 c0 -18
-5 -25 -20 -25 -15 0 -20 7 -20 25 0 18 5 25 20 25 15 0 20 -7 20 -25z m170 0
c0 -18 -5 -25 -20 -25 -15 0 -20 7 -20 25 0 18 5 25 20 25 15 0 20 -7 20 -25z
m180 0 c0 -20 -5 -25 -25 -25 -20 0 -25 5 -25 25 0 20 5 25 25 25 20 0 25 -5
25 -25z m3230 0 c0 -18 -5 -25 -20 -25 -15 0 -20 7 -20 25 0 18 5 25 20 25 15
0 20 -7 20 -25z m178 3 c-2 -15 -11 -24 -25 -26 -19 -3 -23 1 -23 22 0 21 5
26 26 26 21 0 25 -4 22 -22z m170 0 c-2 -15 -10 -23 -23 -23 -13 0 -21 8 -23
23 -3 18 1 22 23 22 22 0 26 -4 23 -22z m172 -3 c0 -18 -5 -25 -20 -25 -15 0
-20 7 -20 25 0 18 5 25 20 25 15 0 20 -7 20 -25z m-3032 -327 c-2 -15 -10 -23
-23 -23 -13 0 -21 8 -23 23 -3 18 1 22 23 22 22 0 26 -4 23 -22z m1800 0 c-5
-34 -38 -37 -38 -4 0 20 5 26 21 26 15 0 20 -5 17 -22z m-5750 -144 c12 -22
70 -46 78 -33 4 6 16 1 30 -12 14 -14 20 -26 15 -33 -15 -19 16 -73 49 -84 39
-14 38 -39 -1 -56 -34 -14 -66 -70 -48 -82 16 -9 -30 -53 -49 -47 -26 6 -72
-14 -72 -32 0 -11 -10 -15 -35 -15 -22 0 -35 5 -35 13 0 19 -65 48 -78 35 -13
-13 -53 29 -45 48 8 20 -17 74 -33 74 -9 0 -14 12 -14 35 0 23 5 35 14 35 16
0 40 54 33 74 -7 18 36 59 49 47 13 -12 74 16 74 34 0 21 56 20 68 -1z m9532
1 c0 -20 61 -46 78 -32 17 14 55 -21 48 -46 -6 -26 13 -77 30 -77 9 0 14 -12
14 -35 0 -23 -5 -35 -14 -35 -17 0 -36 -51 -30 -77 7 -25 -32 -61 -47 -46 -14
14 -79 -14 -79 -34 0 -21 -50 -15 -69 9 -12 14 -30 22 -54 22 -41 2 -82 33
-67 51 17 21 -10 73 -42 80 -21 5 -28 13 -28 30 0 17 7 25 28 30 32 6 59 59
42 80 -14 17 36 63 51 48 14 -14 79 14 79 34 0 8 12 13 30 13 20 0 30 -5 30
-15z m-5580 -31 c0 -21 -4 -25 -22 -22 -15 2 -24 11 -26 26 -3 18 1 22 22 22
21 0 26 -5 26 -26z m1800 1 c0 -18 -5 -25 -20 -25 -15 0 -20 7 -20 25 0 18 5
25 20 25 15 0 20 -7 20 -25z m-5380 -160 c0 -18 -5 -25 -19 -25 -11 0 -23 5
-26 10 -11 18 3 40 25 40 15 0 20 -7 20 -25z m170 0 c0 -18 -5 -25 -20 -25
-15 0 -20 7 -20 25 0 18 5 25 20 25 15 0 20 -7 20 -25z m175 0 c0 -13 -8 -21
-22 -23 -19 -3 -23 1 -23 23 0 22 4 26 23 23 14 -2 22 -10 22 -23z m8075 0 c0
-18 -5 -25 -20 -25 -15 0 -20 7 -20 25 0 18 5 25 20 25 15 0 20 -7 20 -25z
m170 0 c0 -18 -5 -25 -20 -25 -15 0 -20 7 -20 25 0 18 5 25 20 25 15 0 20 -7
20 -25z m180 0 c0 -20 -5 -25 -25 -25 -20 0 -25 5 -25 25 0 20 5 25 25 25 20
0 25 -5 25 -25z m-5192 -13 c3 -18 -1 -22 -22 -22 -19 0 -26 5 -26 18 0 39 43
43 48 4z m1800 0 c3 -17 -2 -22 -17 -22 -16 0 -21 6 -21 26 0 33 33 30 38 -4z
m-1800 -174 c-2 -15 -10 -23 -23 -23 -13 0 -21 8 -23 23 -3 18 1 22 23 22 22
0 26 -4 23 -22z m1800 0 c-5 -34 -38 -37 -38 -4 0 20 5 26 21 26 15 0 20 -5
17 -22z m-5758 -168 c0 -15 -7 -20 -25 -20 -18 0 -25 5 -25 20 0 15 7 20 25
20 18 0 25 -5 25 -20z m9530 0 c0 -13 -7 -20 -20 -20 -13 0 -20 7 -20 20 0 13
7 20 20 20 13 0 20 -7 20 -20z m-3635 -755 l0 -750 -1145 0 -1145 0 -3 740
c-1 407 0 746 3 753 3 10 238 12 1147 10 l1143 -3 0 -750z m-5895 580 c0 -20
-5 -25 -25 -25 -20 0 -25 5 -25 25 0 20 5 25 25 25 20 0 25 -5 25 -25z m9530
0 c0 -18 -5 -25 -20 -25 -15 0 -20 7 -20 25 0 18 5 25 20 25 15 0 20 -7 20
-25z m-9532 -172 c3 -19 -1 -23 -22 -23 -21 0 -26 5 -26 26 0 21 4 25 23 22
14 -2 23 -11 25 -25z m9530 -1 c3 -17 -2 -22 -17 -22 -16 0 -21 6 -21 26 0 33
33 30 38 -4z m-9528 -172 c0 -15 -7 -20 -25 -20 -18 0 -25 5 -25 20 0 15 7 20
25 20 18 0 25 -5 25 -20z m9530 0 c0 -13 -7 -20 -20 -20 -13 0 -20 7 -20 20 0
13 7 20 20 20 13 0 20 -7 20 -20z m-9530 -175 c0 -20 -5 -25 -25 -25 -20 0
-25 5 -25 25 0 20 5 25 25 25 20 0 25 -5 25 -25z m9530 0 c0 -18 -5 -25 -20
-25 -15 0 -20 7 -20 25 0 18 5 25 20 25 15 0 20 -7 20 -25z m-9532 -172 c3
-19 -1 -23 -22 -23 -21 0 -26 5 -26 26 0 21 4 25 23 22 14 -2 23 -11 25 -25z
m9530 -1 c3 -17 -2 -22 -17 -22 -16 0 -21 6 -21 26 0 33 33 30 38 -4z m-9528
-172 c0 -15 -7 -20 -25 -20 -18 0 -25 5 -25 20 0 15 7 20 25 20 18 0 25 -5 25
-20z m9530 0 c0 -13 -7 -20 -20 -20 -13 0 -20 7 -20 20 0 13 7 20 20 20 13 0
20 -7 20 -20z m-9530 -175 c0 -20 -5 -25 -25 -25 -20 0 -25 5 -25 25 0 20 5
25 25 25 20 0 25 -5 25 -25z m9530 0 c0 -18 -5 -25 -20 -25 -15 0 -20 7 -20
25 0 18 5 25 20 25 15 0 20 -7 20 -25z m-7378 -67 c4 -27 74 -55 99 -39 23 14
78 -42 61 -62 -16 -19 16 -97 41 -97 14 0 17 -9 17 -45 0 -36 -3 -45 -17 -45
-25 0 -57 -78 -41 -97 18 -22 -35 -72 -60 -57 -10 7 -23 8 -32 3 -8 -5 -27
-13 -42 -19 -20 -7 -28 -16 -28 -33 0 -29 -35 -83 -73 -111 -26 -20 -44 -21
-250 -24 -122 -2 -241 0 -265 3 -56 8 -116 61 -135 118 -10 32 -19 43 -38 45
-70 9 -109 50 -109 117 0 29 8 45 34 71 19 19 41 34 50 34 9 0 16 7 16 15 0
33 32 75 70 95 50 26 115 26 165 0 37 -19 42 -19 78 -5 45 18 125 19 178 3 45
-13 59 -6 40 24 -11 18 -9 24 14 48 22 23 31 27 45 18 25 -16 94 13 98 41 3
17 10 21 42 21 32 0 39 -4 42 -22z m5405 2 c7 -26 69 -53 104 -45 22 5 31 1
47 -22 14 -20 17 -33 10 -43 -6 -10 -4 -28 7 -55 l17 -40 15 44 c8 23 12 50 8
59 -8 22 44 75 61 61 19 -16 84 11 95 38 12 33 76 33 88 0 11 -29 83 -56 104
-39 20 17 75 -41 59 -61 -17 -21 6 -87 35 -98 19 -7 23 -16 23 -49 0 -33 -3
-40 -20 -40 -28 0 -56 -67 -40 -94 10 -15 7 -23 -16 -47 -21 -22 -30 -26 -41
-17 -21 17 -93 -10 -104 -40 -8 -20 -15 -23 -46 -20 -29 2 -39 8 -41 23 -3 25
-77 52 -96 36 -18 -15 -67 38 -60 64 3 11 -1 38 -9 60 l-14 40 -17 -40 c-12
-27 -14 -45 -8 -55 16 -26 -38 -81 -60 -63 -17 13 -98 -22 -98 -42 0 -11 -12
-15 -40 -15 -29 0 -40 4 -40 15 0 9 -12 20 -27 25 -16 6 -35 14 -43 19 -9 5
-22 4 -32 -3 -25 -15 -78 35 -60 57 10 11 9 21 -3 43 -8 16 -15 35 -15 42 0 6
-9 12 -20 12 -17 0 -20 7 -20 45 0 36 3 45 18 45 24 0 56 78 40 97 -15 19 39
78 58 62 20 -17 98 14 102 40 5 30 71 31 79 1z m-7559 -107 c3 -19 -1 -23 -22
-23 -21 0 -26 5 -26 26 0 21 4 25 23 22 14 -2 23 -11 25 -25z m9532 2 c0 -18
-5 -25 -20 -25 -15 0 -20 7 -20 25 0 18 5 25 20 25 15 0 20 -7 20 -25z m-9530
-175 c0 -15 -7 -20 -25 -20 -18 0 -25 5 -25 20 0 15 7 20 25 20 18 0 25 -5 25
-20z m9530 0 c0 -13 -7 -20 -20 -20 -13 0 -20 7 -20 20 0 13 7 20 20 20 13 0
20 -7 20 -20z m-9530 -175 c0 -20 -5 -25 -25 -25 -20 0 -25 5 -25 25 0 20 5
25 25 25 20 0 25 -5 25 -25z m9530 0 c0 -18 -5 -25 -20 -25 -15 0 -20 7 -20
25 0 18 5 25 20 25 15 0 20 -7 20 -25z m-9532 -172 c3 -19 -1 -23 -22 -23 -21
0 -26 5 -26 26 0 21 4 25 23 22 14 -2 23 -11 25 -25z m9532 2 c0 -18 -5 -25
-20 -25 -15 0 -20 7 -20 25 0 18 5 25 20 25 15 0 20 -7 20 -25z m-2350 -1465
l0 -1330 -2430 0 -2430 0 0 1330 0 1330 2430 0 2430 0 0 -1330z m-5882 138
l-3 -1083 -810 0 -810 0 -3 1083 -2 1082 815 0 815 0 -2 -1082z m8530 0 l-3
-1083 -810 0 -810 0 -3 563 c-2 554 -2 562 -22 562 -15 0 -20 7 -20 26 0 21 4
25 20 21 20 -5 20 0 20 494 l0 499 815 0 815 0 -2 -1082z m-2226 9 c-3 -32 -8
-56 -12 -55 -39 15 -189 105 -187 112 2 5 46 33 98 62 l94 52 6 -56 c3 -31 4
-83 1 -115z m-5645 111 c73 -41 91 -54 81 -63 -7 -7 -52 -33 -99 -58 l-86 -47
-6 55 c-6 55 2 165 11 165 2 0 47 -23 99 -52z m-519 -56 c3 -17 -2 -22 -17
-22 -16 0 -21 6 -21 26 0 33 33 30 38 -4z m142 3 c0 -18 -5 -25 -20 -25 -20 0
-28 28 -13 43 15 16 33 6 33 -18z m150 0 c0 -18 -5 -25 -20 -25 -15 0 -20 7
-20 25 0 18 5 25 20 25 15 0 20 -7 20 -25z m6020 0 c0 -16 -6 -25 -15 -25 -9
0 -15 9 -15 25 0 16 6 25 15 25 9 0 15 -9 15 -25z m150 0 c0 -18 -5 -25 -20
-25 -15 0 -20 7 -20 25 0 18 5 25 20 25 15 0 20 -7 20 -25z m148 -3 c3 -17 -2
-22 -17 -22 -16 0 -21 6 -21 26 0 33 33 30 38 -4z"/>
<path d="M4756 6160 c-76 -23 -130 -122 -106 -197 46 -144 234 -164 299 -31
27 57 27 94 -2 148 -37 71 -114 103 -191 80z"/>
<path d="M5145 6120 c-11 -4 -31 -20 -45 -35 -20 -22 -25 -37 -25 -81 0 -47 4
-58 31 -85 58 -58 151 -47 194 24 24 38 25 66 6 112 -25 59 -101 90 -161 65z"/>
<path d="M2880 5654 c0 -164 3 -204 13 -196 49 42 277 272 277 280 0 32 -192
122 -262 122 l-28 0 0 -206z"/>
<path d="M8660 6001 c-91 -57 -132 -149 -109 -245 21 -90 72 -145 160 -171
100 -30 194 6 257 99 26 40 32 58 32 103 0 74 -22 66 -33 -13 -13 -93 -71
-151 -170 -169 -48 -9 -120 16 -163 57 -39 37 -69 123 -59 170 12 55 42 103
82 134 34 26 46 29 110 29 63 0 73 2 73 18 0 14 -10 17 -67 17 -57 0 -75 -5
-113 -29z"/>
<path d="M8749 5883 c-58 -66 -63 -74 -48 -83 8 -6 20 -4 30 6 22 20 29 8 29
-46 0 -51 5 -61 26 -53 10 3 14 22 14 61 0 54 0 55 20 37 17 -16 20 -16 26 -2
4 10 -8 33 -32 62 -21 25 -39 45 -39 45 -1 0 -12 -12 -26 -27z"/>
<path d="M1174 5540 c-41 -16 -74 -68 -74 -117 0 -40 5 -50 40 -85 38 -39 42
-40 91 -36 65 7 108 46 116 105 13 94 -84 169 -173 133z"/>
<path d="M10692 5530 c-99 -60 -65 -214 49 -227 57 -6 102 15 125 59 61 118
-62 236 -174 168z"/>
<path d="M6715 4833 c10 -16 34 -48 53 -72 l36 -44 14 39 c8 21 18 54 22 72
l8 32 -75 0 -75 0 17 -27z"/>
<path d="M6415 4559 c-154 -115 -285 -212 -290 -216 -6 -5 -28 -21 -49 -37
l-39 -29 -25 29 c-13 16 -38 45 -56 64 -17 19 -62 72 -100 118 -38 45 -71 82
-73 82 -2 0 -116 -84 -253 -186 -155 -117 -246 -192 -243 -200 3 -8 46 18 128
79 67 51 135 101 151 112 32 23 134 101 149 113 6 5 23 17 39 27 25 17 30 17
40 4 6 -9 34 -42 62 -75 29 -32 80 -92 114 -132 41 -48 66 -70 74 -64 21 17
451 335 514 381 35 25 69 51 75 56 7 6 29 23 50 38 32 24 42 48 19 46 -4 0
-133 -94 -287 -210z"/>
<path d="M6220 4005 l0 -225 120 0 120 0 0 225 0 225 -120 0 -120 0 0 -225z"/>
<path d="M5793 3763 c-277 -2 -433 -7 -433 -13 0 -7 243 -10 695 -10 457 0
695 3 695 10 0 6 -34 10 -83 10 -46 0 -164 2 -263 3 -98 2 -374 2 -611 0z"/>
<path d="M3295 3694 c-68 -35 -94 -74 -71 -108 8 -13 19 -39 23 -57 7 -27 20
-40 57 -59 27 -14 57 -38 68 -53 11 -15 29 -27 40 -27 31 0 94 70 107 118 35
128 -108 247 -224 186z"/>
<path d="M8693 3689 c-103 -51 -120 -184 -34 -262 47 -43 97 -54 154 -37 143
42 157 240 23 301 -53 24 -91 24 -143 -2z"/>
<path d="M9155 3696 c-109 -49 -132 -182 -46 -267 129 -129 338 36 248 196
-39 69 -132 102 -202 71z"/>
<path d="M7830 2661 c-16 -31 -12 -51 15 -63 51 -23 101 32 63 70 -19 19 -66
15 -78 -7z"/>
<path d="M4424 2525 c-15 -23 -15 -27 0 -50 20 -30 49 -32 76 -5 24 24 24 29
4 58 -21 30 -59 29 -80 -3z"/>
<path d="M5107 2532 c-22 -24 -21 -45 1 -65 25 -22 44 -21 70 3 26 25 27 29 6
58 -18 27 -55 29 -77 4z"/>
<path d="M6078 2384 c-16 -34 0 -58 40 -62 26 -3 34 2 43 21 16 36 -3 67 -42
67 -22 0 -32 -6 -41 -26z"/>
<path d="M4788 2273 c-10 -2 -21 -16 -25 -30 -4 -20 -1 -31 17 -45 12 -10 28
-18 35 -18 20 0 47 37 43 62 -4 31 -28 42 -70 31z"/>
<path d="M4062 2127 c-28 -29 -28 -38 1 -65 30 -28 41 -28 66 4 16 21 18 30 9
50 -6 13 -15 24 -19 24 -4 0 -14 2 -21 5 -8 3 -24 -5 -36 -18z"/>
<path d="M5622 2130 c-28 -26 -28 -41 1 -68 29 -28 38 -28 65 1 28 29 28 38
-1 65 -29 27 -37 27 -65 2z"/>
<path d="M6582 2134 c-12 -8 -22 -26 -22 -39 0 -21 32 -55 52 -55 12 0 48 43
48 58 0 14 -36 52 -49 52 -4 0 -17 -7 -29 -16z"/>
<path d="M5800 580 l0 -40 200 0 200 0 0 40 0 40 -200 0 -200 0 0 -40z"/>
<path d="M1413 1311 c-43 -11 -99 -55 -119 -93 -25 -47 -21 -141 6 -181 47
-67 77 -82 160 -82 66 0 80 3 106 25 56 46 68 70 72 141 6 103 1 107 -92 54
-43 -25 -82 -45 -87 -45 -9 0 -4 12 42 117 12 29 21 55 18 57 -10 10 -77 14
-106 7z"/>
<path d="M2046 1308 c-3 -7 -7 -33 -10 -58 -3 -25 -9 -55 -12 -67 -6 -23 -5
-23 85 -23 50 0 91 2 91 4 0 13 -32 75 -50 99 -21 27 -69 57 -90 57 -6 0 -12
-6 -14 -12z"/>
<path d="M9755 2631 c-3 -5 -1 -12 5 -16 5 -3 10 1 10 9 0 18 -6 21 -15 7z"/>
<path d="M9870 2624 c0 -8 5 -12 10 -9 6 4 8 11 5 16 -9 14 -15 11 -15 -7z"/>
<path d="M9980 2626 c0 -9 5 -16 10 -16 6 0 10 4 10 9 0 6 -4 13 -10 16 -5 3
-10 -1 -10 -9z"/>
<path d="M10200 2626 c0 -9 5 -16 10 -16 6 0 10 4 10 9 0 6 -4 13 -10 16 -5 3
-10 -1 -10 -9z"/>
<path d="M9640 2620 c0 -5 5 -10 10 -10 6 0 10 5 10 10 0 6 -4 10 -10 10 -5 0
-10 -4 -10 -10z"/>
<path d="M10090 2620 c0 -5 5 -10 10 -10 6 0 10 5 10 10 0 6 -4 10 -10 10 -5
0 -10 -4 -10 -10z"/>
<path d="M9623 2565 c-8 -23 -8 -35 -1 -35 6 0 8 -7 4 -15 -3 -8 -1 -15 4 -15
6 0 10 -13 10 -30 0 -20 5 -30 15 -30 9 0 15 9 15 24 0 14 4 36 10 50 15 40 2
86 -25 86 -16 0 -24 -9 -32 -35z"/>
<path d="M9727 2594 c-4 -4 -6 -23 -6 -43 2 -30 3 -32 6 -8 8 52 23 27 25 -40
1 -64 1 -65 8 -23 l6 45 5 -45 c5 -37 6 -32 7 28 1 52 5 71 13 66 7 -4 10 -1
7 7 -5 15 -59 25 -71 13z"/>
<path d="M9851 2581 c-12 -21 -10 -81 2 -81 4 0 8 -15 8 -32 l2 -33 7 35 7 35
3 -35 c3 -35 3 -35 7 -5 3 16 10 33 16 37 12 7 13 69 2 87 -10 18 -43 13 -54
-8z"/>
<path d="M9957 2593 c-4 -3 -6 -22 -6 -42 l2 -36 7 35 c6 29 8 21 10 -40 3
-68 4 -71 10 -30 l6 45 5 -45 c5 -39 6 -37 7 22 1 37 7 70 12 73 6 3 10 10 10
16 0 10 -53 13 -63 2z"/>
<path d="M10073 2568 c-4 -18 -6 -37 -4 -43 1 -5 6 -28 11 -50 6 -32 8 -34 9
-12 1 15 6 27 11 27 6 0 11 -12 11 -27 2 -27 2 -27 6 -3 2 14 8 39 14 56 13
41 -3 84 -31 84 -15 0 -22 -9 -27 -32z"/>
<path d="M10174 2586 c-3 -8 -4 -27 -1 -43 4 -27 4 -26 6 5 2 60 21 23 23 -46
1 -63 1 -64 8 -22 l6 45 5 -45 c5 -38 6 -33 9 30 2 63 4 69 10 40 l8 -35 -1
40 c-2 37 -4 40 -35 43 -21 2 -34 -2 -38 -12z"/>
</g>
</svg>
